<svg width="34" height="34" viewBox="0 0 34 34" fill="none" xmlns="http://www.w3.org/2000/svg">
<g clip-path="url(#clip0_1_8)">
<path fill-rule="evenodd" clip-rule="evenodd" d="M22.2244 15.1392C22.6131 15.5284 22.8314 16.056 22.8314 16.606C22.8314 17.1561 22.6131 17.6837 22.2244 18.0729L14.3974 25.9026C14.008 26.2918 13.4799 26.5104 12.9294 26.5103C12.3788 26.5102 11.8508 26.2913 11.4616 25.9019C11.0724 25.5125 10.8538 24.9845 10.8539 24.4339C10.8541 23.8833 11.0729 23.3554 11.4623 22.9661L17.8224 16.606L11.4623 10.2459C11.084 9.85462 10.8745 9.33038 10.879 8.78612C10.8835 8.24186 11.1015 7.72113 11.4862 7.33608C11.8709 6.95104 12.3914 6.73249 12.9357 6.7275C13.4799 6.72252 14.0044 6.9315 14.396 7.30943L22.2258 15.1378L22.2244 15.1392Z" fill="white"/>
</g>
<defs>
<clipPath id="clip0_1_8">
<rect width="33.212" height="33.212" fill="white"/>
</clipPath>
</defs>
</svg>
